
<svg version="1.0" xmlns="http://www.w3.org/2000/svg"
 fill="currentColor" viewBox="0 0 490.000000 490.000000"
 preserveAspectRatio="xMidYMid meet">

<g transform="translate(0.000000,490.000000) scale(0.100000,-0.100000)"
 stroke="none">
<path d="M2087 4752 c-8 -9 -20 -30 -26 -45 -8 -20 -11 -421 -11 -1298 0
-1360 -1 -1321 48 -1348 15 -8 352 -11 1122 -11 l1102 0 29 29 29 29 0 1302 0
1302 -29 29 -29 29 -1110 0 c-1044 0 -1110 -1 -1125 -18z m2101 -1339 l2
-1173 -975 0 -975 0 0 1175 0 1175 973 -2 972 -3 3 -1172z"/>
<path d="M2500 4373 c-8 -3 -25 -15 -37 -26 l-23 -20 0 -913 0 -913 24 -28 24
-28 709 -3 c642 -3 711 -1 739 13 18 9 37 28 43 41 15 34 16 1807 0 1836 -26
48 -31 48 -771 47 -381 0 -700 -3 -708 -6z m1300 -958 l0 -785 -585 0 -585 0
0 778 c0 428 3 782 7 785 3 4 267 7 585 7 l578 0 0 -785z"/>
<path d="M3421 4035 c-29 -25 -111 -98 -183 -163 -71 -64 -132 -118 -136 -119
-4 -2 -29 29 -57 68 -27 39 -59 77 -70 85 -32 23 -73 17 -106 -15 -49 -50 -42
-78 59 -226 48 -71 99 -136 113 -144 49 -27 53 -25 290 185 221 196 259 236
266 276 5 32 1 41 -25 68 -46 45 -85 41 -151 -15z"/>
<path d="M3460 3483 c-14 -9 -79 -65 -145 -123 -163 -143 -207 -180 -217 -180
-4 0 -33 34 -64 75 -34 45 -66 78 -81 81 -30 8 -79 -12 -98 -40 -30 -42 -18
-75 78 -216 85 -124 95 -135 126 -138 57 -6 75 4 197 114 66 58 164 146 220
195 133 117 153 162 95 220 -34 33 -74 38 -111 12z"/>
<path d="M954 2823 c-41 -8 -72 -59 -134 -218 -34 -88 -94 -243 -134 -345 -40
-102 -96 -246 -125 -321 l-53 -136 -204 -197 -204 -198 0 -429 c0 -414 1 -430
20 -449 23 -23 45 -29 120 -32 l55 -3 5 -165 c6 -191 13 -213 77 -223 65 -11
575 -8 616 4 67 18 77 48 77 232 l0 157 975 0 975 0 0 -165 0 -165 29 -32 29
-33 331 0 331 0 27 28 28 27 3 170 3 170 62 0 c60 0 99 14 119 44 4 6 8 202 8
436 l0 424 -220 221 -220 220 -1416 3 c-1122 2 -1415 5 -1411 15 2 6 27 66 55
132 63 151 203 491 234 570 l24 60 347 5 347 5 25 26 c14 14 28 41 31 61 5 30
1 41 -24 69 l-30 34 -379 1 c-208 1 -388 0 -399 -3z m2677 -1322 l169 -169 0
-131 0 -131 -404 0 c-222 0 -412 -3 -421 -6 -22 -9 -45 -57 -45 -94 0 -21 9
-41 29 -61 l29 -29 406 0 406 0 0 -100 0 -100 -1755 0 -1755 0 0 100 0 100
404 0 c396 0 404 0 430 21 38 30 49 64 36 105 -20 61 -6 59 -454 64 l-411 5
-2 125 -3 125 167 173 167 172 1419 0 1418 0 170 -169z m-2751 -1106 l0 -105
-200 0 -200 0 0 98 c0 54 3 102 7 105 3 4 93 7 200 7 l193 0 0 -105z m2725 0
l0 -100 -197 -3 -198 -2 0 98 c0 54 3 102 7 106 4 3 93 5 197 4 l191 -3 0
-100z"/>
</g>
</svg>
