<svg xmlns="http://www.w3.org/2000/svg"
 fill="currentColor" viewBox="0 0 490.000000 490.000000"
 preserveAspectRatio="xMidYMid meet">

<g transform="translate(0.000000,490.000000) scale(0.100000,-0.100000)"
 stroke="none">
<path d="M1340 4259 c-107 -30 -234 -127 -288 -220 -11 -19 -49 -83 -84 -144
-35 -60 -88 -159 -117 -220 -30 -60 -56 -112 -58 -114 -2 -3 -16 7 -31 21 -42
40 -105 69 -164 74 -29 3 -120 1 -203 -4 -131 -8 -156 -12 -201 -35 -53 -27
-110 -84 -133 -134 -7 -15 -17 -36 -22 -45 -11 -22 -12 -93 -1 -116 5 -9 19
-39 32 -65 44 -91 142 -151 268 -163 40 -3 75 -10 77 -15 3 -4 -9 -30 -26 -58
l-32 -50 7 -203 c3 -112 10 -266 15 -343 6 -77 14 -222 20 -323 16 -288 24
-317 106 -390 l45 -40 0 -110 c0 -153 30 -217 125 -261 42 -20 61 -21 312 -21
244 0 272 2 308 20 49 23 65 36 91 75 29 42 44 110 44 199 l0 76 514 0 514 0
32 -30 c18 -16 40 -30 49 -31 34 -1 204 -65 211 -79 4 -8 17 -35 29 -58 28
-58 26 -76 -14 -147 -72 -125 -88 -162 -82 -186 3 -13 62 -79 130 -147 91 -89
130 -122 148 -122 23 0 192 80 213 101 21 20 78 6 166 -40 8 -4 33 -63 56
-130 23 -67 49 -130 58 -139 14 -14 43 -17 184 -20 121 -2 174 1 192 11 20 10
33 36 65 134 39 116 57 153 77 153 5 0 28 9 50 20 23 11 50 20 59 20 10 0 67
-25 128 -56 82 -42 117 -55 135 -50 28 7 262 238 271 267 4 12 -16 61 -54 135
-34 64 -61 121 -61 127 0 6 14 41 32 77 l31 67 119 38 c68 21 130 47 144 60
24 22 24 25 24 192 0 160 -1 171 -21 189 -11 10 -76 37 -142 59 l-122 40 -32
60 c-17 33 -31 67 -32 75 -1 8 26 70 60 137 54 108 59 124 48 145 -17 33 -219
237 -251 254 -25 13 -32 12 -68 -6 -69 -35 -74 -31 -67 58 7 84 -6 147 -44
208 -11 18 -18 38 -15 43 3 4 38 12 77 15 100 10 166 37 216 88 135 139 101
351 -71 440 -35 19 -66 23 -211 29 -223 9 -286 -3 -344 -65 -25 -27 -61 -35
-61 -14 0 16 -95 201 -160 313 -29 50 -58 100 -64 112 -6 13 -14 23 -18 23 -5
0 -8 5 -8 11 0 22 -92 120 -149 158 -119 81 -43 76 -1076 78 -563 1 -934 -2
-955 -8z m1903 -158 c95 -47 139 -99 259 -306 55 -95 218 -433 218 -453 0 -9
-339 -12 -1435 -12 -789 0 -1435 4 -1435 8 0 5 8 26 19 48 10 21 27 59 37 84
31 75 147 300 193 375 24 39 52 86 63 105 46 81 143 154 228 171 19 4 433 6
920 6 l885 -2 48 -24z m-2609 -585 c79 -33 99 -116 48 -197 -16 -24 -45 -61
-65 -83 -34 -36 -40 -38 -79 -33 -24 3 -90 11 -148 18 -119 14 -148 25 -184
72 -50 65 -26 169 47 209 47 25 328 36 381 14z m3718 -27 c62 -45 78 -136 32
-196 -14 -18 -37 -39 -52 -47 -25 -12 -124 -28 -273 -42 l-66 -6 -41 49 c-58
67 -75 107 -69 160 5 45 34 87 72 104 11 5 98 7 194 4 154 -5 177 -8 203 -26z
m-459 -358 c37 -37 92 -86 122 -107 29 -21 61 -51 69 -66 17 -28 21 -110 10
-217 -8 -72 -13 -73 -94 -33 l-54 27 -41 124 c-25 75 -48 129 -60 138 -16 11
-56 13 -203 11 -215 -4 -188 14 -245 -161 l-38 -117 -66 -30 c-36 -17 -70 -30
-76 -30 -5 0 -58 25 -118 55 -59 30 -119 55 -134 55 -27 0 -61 -27 -205 -167
-77 -75 -85 -86 -85 -120 l0 -38 -480 -3 c-290 -1 -501 2 -534 8 -81 15 -154
53 -208 108 -26 27 -81 83 -121 125 -40 42 -103 99 -140 127 -116 87 -304 168
-492 210 -30 7 -59 15 -64 18 -4 2 25 38 65 78 l73 74 1526 0 1525 0 68 -69z
m-3238 -232 c161 -27 365 -112 456 -190 19 -16 37 -29 42 -29 40 0 -66 -120
-136 -153 -107 -51 -227 -41 -424 35 l-102 39 -3 147 c-2 81 0 152 5 158 8 12
62 10 162 -7z m3124 -101 c56 -180 49 -170 121 -195 35 -13 86 -34 114 -48 27
-14 60 -25 72 -25 12 0 70 25 129 56 l108 56 76 -76 75 -75 -57 -111 c-31 -60
-57 -116 -57 -124 0 -8 15 -47 33 -88 18 -40 39 -92 47 -115 15 -48 32 -59
150 -93 41 -12 83 -24 93 -26 16 -5 17 -17 15 -116 l-3 -110 -35 -13 c-19 -7
-69 -23 -110 -36 -92 -28 -94 -29 -111 -81 -7 -24 -28 -73 -46 -111 -18 -37
-33 -75 -33 -84 0 -19 90 -206 102 -211 22 -10 1 -44 -64 -109 l-73 -72 -105
54 c-58 30 -117 54 -132 55 -15 0 -54 -12 -85 -27 -32 -14 -67 -29 -78 -33
-91 -32 -92 -34 -120 -127 -15 -48 -34 -103 -42 -120 l-14 -33 -99 0 c-118 0
-110 -8 -161 174 -15 53 -51 96 -81 96 -11 0 -60 19 -109 42 l-89 41 -110 -56
c-61 -32 -116 -57 -122 -57 -15 0 -148 130 -148 144 0 5 25 58 55 117 59 116
61 129 25 194 -9 17 -27 59 -40 95 -13 35 -28 69 -34 75 -6 7 -58 27 -116 45
-58 18 -111 38 -117 43 -14 10 -18 183 -5 203 4 7 48 24 97 39 136 41 150 49
165 98 6 23 27 75 46 116 19 41 34 79 34 85 0 6 -26 62 -57 123 l-58 113 75
75 75 75 108 -55 c60 -30 118 -55 130 -55 12 0 49 13 82 29 33 16 78 35 100
42 60 20 71 33 100 127 15 48 33 99 39 115 l11 27 106 0 106 0 22 -72z m-2417
-314 c86 -81 163 -125 265 -150 46 -10 175 -13 600 -14 l542 0 16 -34 c12 -25
14 -39 6 -53 -6 -10 -22 -44 -35 -75 l-25 -58 -442 0 c-441 0 -443 0 -466 -22
-26 -25 -29 -64 -7 -93 14 -19 28 -20 325 -23 l310 -3 -3 -87 -3 -87 -900 -3
c-840 -2 -902 -1 -935 15 -56 29 -67 63 -75 241 -3 86 -10 209 -15 272 -5 71
-5 119 1 126 7 9 30 4 84 -17 249 -97 437 -73 594 77 36 35 70 63 75 64 5 0
45 -34 88 -76z m-80 -850 c2 -9 1 -52 -2 -95 -4 -64 -9 -82 -29 -103 l-24 -26
-247 0 -247 0 -27 26 c-24 25 -26 33 -26 120 l0 94 299 0 c270 0 300 -2 303
-16z"/>
<path d="M3435 2267 c-149 -56 -270 -191 -304 -337 -13 -57 -13 -162 0 -219
34 -147 151 -275 314 -342 78 -32 236 -25 327 14 119 51 222 160 265 280 26
69 32 226 12 288 -33 103 -106 205 -186 261 -115 79 -300 102 -428 55z m225
-107 c108 -24 204 -101 247 -198 21 -46 26 -73 26 -142 0 -74 -4 -93 -29 -144
-52 -107 -129 -167 -252 -196 -136 -32 -301 52 -368 188 -26 51 -29 68 -29
152 0 84 3 101 28 152 46 91 126 156 227 184 56 15 93 16 150 4z"/>
</g>
</svg>
