
<svg xmlns="http://www.w3.org/2000/svg"
 fill="currentColor" viewBox="0 0 490.000000 490.000000"
 preserveAspectRatio="xMidYMid meet">

<g transform="translate(0.000000,490.000000) scale(0.100000,-0.100000)"
 stroke="none">
<path d="M1016 4471 c-20 -21 -82 -169 -228 -542 l-199 -514 -220 -215 -220
-215 1 -458 0 -459 31 -29 c28 -27 37 -29 104 -29 l73 0 4 -177 c3 -192 11
-224 61 -237 12 -3 173 -6 357 -6 367 0 364 -1 395 60 12 22 15 67 15 195 l0
165 320 0 c267 0 326 3 350 15 61 32 68 99 16 151 l-34 34 -741 0 -741 0 0
105 0 104 441 3 441 3 24 28 c26 30 33 92 14 128 -26 48 -41 49 -495 49 l-425
0 0 134 0 134 176 181 176 181 1516 0 1516 0 205 -204 c222 -220 238 -230 304
-202 42 17 57 41 57 92 0 36 -11 49 -214 253 l-215 216 -205 514 c-145 363
-213 522 -232 542 l-28 29 -1186 0 -1186 0 -28 -29z m2456 -581 c87 -217 161
-403 164 -412 5 -17 -66 -18 -1405 -18 -776 0 -1411 2 -1411 5 0 7 319 783
332 808 8 16 68 17 1085 15 l1077 -3 158 -395z m-2482 -1990 l0 -110 -215 0
-215 0 0 110 0 110 215 0 215 0 0 -110z"/>
<path d="M3380 2830 c-146 -3 -266 -7 -267 -8 -1 -1 -9 -15 -18 -32 -11 -21
-15 -60 -15 -139 0 -105 -1 -110 -22 -117 -13 -3 -60 -28 -104 -55 -45 -27
-84 -49 -87 -49 -3 0 -44 23 -92 51 -92 54 -141 64 -184 37 -18 -11 -301 -492
-347 -589 -16 -35 -16 -39 2 -75 15 -31 37 -49 110 -92 l91 -52 -1 -122 -1
-122 -90 -53 c-97 -58 -129 -96 -118 -142 3 -14 78 -154 167 -310 207 -364
207 -365 373 -266 l92 55 53 -33 c29 -19 77 -46 106 -61 l52 -26 0 -116 c0
-114 0 -116 29 -145 l29 -29 341 0 c242 0 348 3 366 12 44 20 55 56 55 172 l0
105 100 60 100 61 83 -49 c46 -27 100 -52 120 -56 68 -13 87 9 265 320 134
233 162 288 162 321 0 21 -4 45 -9 53 -5 8 -51 40 -103 71 l-93 56 -1 122 -1
122 88 51 c163 93 163 89 -37 440 -86 151 -169 286 -185 302 -47 43 -93 38
-197 -23 -47 -28 -90 -50 -96 -48 -6 2 -53 28 -103 58 l-93 55 0 111 c0 97 -3
115 -20 137 -27 34 -77 47 -165 45 -38 -1 -189 -5 -335 -8z m322 -304 c4 -125
10 -133 109 -171 38 -15 102 -51 143 -81 76 -56 113 -74 148 -74 11 0 56 20
100 45 44 25 81 45 83 45 5 0 208 -361 204 -363 -2 -2 -37 -22 -77 -46 -40
-23 -78 -52 -86 -64 -11 -17 -13 -68 -12 -234 2 -246 -2 -234 113 -299 35 -19
63 -37 63 -40 0 -12 -196 -347 -206 -351 -6 -2 -44 15 -85 39 -99 57 -125 56
-209 -6 -36 -27 -106 -68 -156 -92 -126 -60 -128 -63 -132 -190 l-4 -104 -209
0 -209 0 0 88 c0 63 -5 96 -18 121 -18 35 -21 37 -144 95 -43 21 -99 53 -125
73 -95 73 -123 74 -234 8 -34 -20 -67 -34 -73 -32 -9 4 -206 339 -206 351 0 3
36 25 80 50 44 26 83 54 88 64 5 9 9 114 8 234 -2 166 -5 220 -16 233 -7 9
-45 35 -84 57 -39 23 -73 43 -75 45 -4 2 185 341 198 356 4 4 43 -13 87 -38
105 -60 124 -59 223 10 43 30 111 69 152 86 41 17 88 44 104 60 29 28 30 33
33 129 l4 100 208 0 208 0 4 -104z"/>
<path d="M3353 2085 c-85 -23 -153 -63 -224 -132 -115 -110 -166 -242 -156
-398 21 -300 286 -520 578 -477 256 37 449 256 449 507 -1 233 -161 441 -385
500 -73 18 -192 18 -262 0z m267 -213 c63 -33 125 -96 152 -156 32 -71 32
-192 1 -256 -36 -73 -79 -117 -149 -151 -56 -28 -76 -32 -139 -32 -63 0 -83 4
-140 32 -250 123 -226 470 40 578 50 21 182 12 235 -15z"/>
</g>
</svg>
