
<svg version="1.0" xmlns="http://www.w3.org/2000/svg"
 fill="currentColor" viewBox="0 0 490.000000 490.000000"
 preserveAspectRatio="xMidYMid meet">

<g transform="translate(0.000000,490.000000) scale(0.100000,-0.100000)"
 stroke="none">
<path d="M1594 2457 c-17 -15 -97 -163 -213 -393 l-186 -369 -415 -5 -415 -5
-58 -27 c-65 -31 -155 -115 -185 -174 -37 -74 -42 -132 -42 -524 l0 -379 24
-28 24 -28 177 -5 176 -5 22 -65 c25 -75 77 -151 145 -211 128 -114 328 -146
502 -80 126 48 242 180 279 319 l12 42 897 0 898 0 22 -68 c70 -217 305 -358
538 -322 181 28 342 170 395 348 l12 42 264 0 c268 0 292 3 320 39 22 28 15
78 -15 112 -24 27 -36 32 -94 36 l-67 6 -3 341 -3 341 -31 65 c-39 83 -116
163 -191 198 -54 25 -68 27 -223 30 -127 3 -169 7 -181 18 -9 8 -31 47 -50 87
-18 40 -100 204 -182 365 -120 235 -155 296 -178 307 -24 13 -167 15 -988 15
l-960 0 -27 -23z m2060 -545 c146 -300 187 -376 211 -392 27 -18 48 -20 195
-20 179 0 227 -8 279 -47 67 -52 71 -70 71 -425 l0 -318 -103 0 -103 0 -17 54
c-62 196 -255 336 -461 336 -144 0 -227 -34 -335 -135 -67 -63 -115 -138 -141
-217 l-12 -38 -898 0 -899 0 -15 54 c-20 67 -83 163 -143 216 -26 22 -80 57
-121 78 -68 33 -84 37 -172 40 -159 7 -251 -28 -359 -137 -67 -66 -141 -189
-141 -232 0 -17 -9 -19 -110 -19 l-110 0 0 320 c0 301 1 323 20 360 25 50 73
86 130 99 27 6 209 11 453 11 365 0 412 2 437 17 23 13 64 89 212 395 l183
378 884 -3 885 -2 180 -373z m-2542 -1045 c61 -36 102 -84 127 -152 55 -148
-12 -310 -156 -378 -58 -26 -72 -29 -136 -25 -83 6 -134 28 -191 85 -116 114
-119 301 -8 416 67 70 116 87 233 84 71 -3 93 -7 131 -30z m2735 9 c107 -50
173 -154 173 -275 0 -44 -7 -72 -30 -119 -36 -71 -83 -115 -158 -150 -46 -21
-65 -24 -126 -20 -87 6 -136 29 -197 95 -64 68 -83 123 -77 220 5 88 22 129
77 186 61 65 111 85 216 86 54 1 82 -5 122 -23z"/>
<path d="M1888 2057 c-38 -31 -228 -418 -228 -464 0 -43 45 -93 85 -93 59 0
78 25 171 214 l89 181 90 3 c81 3 92 5 117 29 21 20 28 36 28 62 -1 76 -34 91
-197 91 -118 0 -130 -2 -155 -23z"/>
</g>
</svg>
