
<svg xmlns="http://www.w3.org/2000/svg"
 fill="currentColor" viewBox="0 0 490.000000 490.000000"
 preserveAspectRatio="xMidYMid meet">

<g transform="translate(0.000000,490.000000) scale(0.100000,-0.100000)"
 stroke="none">
<path d="M155 4788 c-11 -6 -28 -20 -37 -32 -16 -20 -18 -120 -18 -1624 0
-1783 -5 -1651 68 -1672 26 -8 381 -10 1184 -8 l1148 3 27 28 c38 38 38 96 0
134 l-27 28 -1108 5 -1107 5 0 1475 0 1475 2171 3 2171 2 6 -142 c3 -77 3
-418 0 -757 -3 -339 -3 -642 1 -675 9 -70 38 -106 86 -106 42 0 67 15 85 50
13 25 15 141 15 885 0 930 2 897 -55 923 -36 17 -4580 17 -4610 0z"/>
<path d="M1115 4376 c-18 -18 -25 -39 -30 -92 -13 -138 -63 -244 -156 -335
-79 -77 -229 -139 -335 -139 -19 0 -44 -5 -56 -11 -47 -25 -48 -40 -48 -662 0
-322 3 -598 6 -616 11 -51 46 -81 97 -81 67 0 195 -37 255 -73 122 -73 213
-214 232 -362 13 -94 26 -132 51 -145 11 -6 278 -10 688 -10 l669 0 30 25 c35
30 47 68 32 104 -23 57 -3 56 -669 61 l-613 5 -19 75 c-61 240 -257 435 -501
496 l-68 16 0 498 0 497 86 21 c112 28 219 88 305 172 102 100 142 177 195
378 3 10 246 12 1195 10 l1192 -3 13 -63 c48 -233 259 -444 499 -497 l75 -17
0 -222 c0 -200 2 -225 18 -239 31 -28 72 -39 106 -27 58 19 61 31 64 295 2
131 1 259 -3 283 -9 61 -41 92 -97 92 -24 0 -72 7 -107 15 -209 50 -356 218
-383 437 -9 73 -17 97 -34 115 l-23 23 -1321 0 -1321 0 -24 -24z"/>
<path d="M3603 3005 c-105 -29 -192 -91 -254 -181 -26 -38 -34 -43 -81 -49
-218 -27 -391 -179 -428 -375 -20 -106 -5 -253 34 -329 14 -26 13 -33 -12 -92
-23 -56 -26 -78 -27 -174 0 -132 17 -195 76 -285 23 -34 64 -78 90 -98 l49
-36 0 -601 c0 -382 4 -614 10 -637 13 -46 43 -68 91 -68 39 0 34 -4 299 215
215 177 287 235 295 235 4 0 99 -78 212 -173 323 -272 319 -269 366 -274 36
-4 46 -1 68 21 15 15 29 40 33 57 3 18 6 300 6 629 l0 597 43 34 c98 76 157
178 179 306 15 89 1 188 -37 263 l-25 49 25 53 c60 131 56 276 -12 417 -68
142 -202 238 -365 262 -72 11 -79 14 -98 45 -34 53 -130 135 -198 167 -56 26
-77 30 -175 33 -78 3 -128 0 -164 -11z m260 -194 c57 -27 109 -78 132 -127 9
-22 29 -51 43 -66 24 -26 32 -28 98 -28 99 0 173 -28 241 -93 64 -60 87 -116
87 -208 0 -58 -5 -77 -42 -151 -23 -46 -42 -88 -42 -93 0 -5 19 -46 42 -92 37
-75 41 -91 41 -156 0 -123 -55 -211 -165 -267 -53 -26 -72 -30 -142 -30 -96 0
-116 -10 -151 -79 -36 -72 -70 -107 -132 -137 -46 -23 -69 -28 -132 -27 -123
1 -198 48 -268 168 -37 63 -60 75 -150 75 -169 0 -292 115 -301 282 -5 75 8
121 49 187 16 25 29 57 29 72 0 16 -18 62 -40 104 -35 67 -40 84 -39 143 1
180 136 302 334 302 62 0 84 15 123 82 40 72 87 114 158 144 72 30 158 28 227
-5z m-508 -1556 c181 -251 578 -251 774 0 38 50 47 56 75 53 l31 -3 3 -462 c1
-255 -1 -463 -5 -463 -5 0 -87 66 -183 146 -276 230 -267 224 -309 224 -45 0
-48 -2 -294 -207 -108 -90 -198 -163 -201 -163 -3 0 -6 209 -6 465 l0 465 38
0 c34 0 41 -5 77 -55z"/>
<path d="M3689 2429 c-224 -25 -387 -268 -324 -485 53 -187 213 -296 411 -281
275 21 430 308 304 564 -69 141 -224 221 -391 202z m168 -225 c76 -60 102
-157 64 -239 -48 -104 -160 -150 -256 -106 -134 61 -167 219 -67 325 41 44 78
57 154 53 57 -2 72 -7 105 -33z"/>
</g>
</svg>
