
<svg xmlns="http://www.w3.org/2000/svg" 
 fill="currentColor" viewBox="0 0 490.000000 490.000000"
 preserveAspectRatio="xMidYMid meet">

<g transform="translate(0.000000,490.000000) scale(0.100000,-0.100000)"
stroke="none">
<path d="M2405 4285 c-16 -9 -37 -22 -45 -29 -8 -8 -80 -58 -160 -113 -146
-100 -231 -159 -480 -333 -74 -52 -184 -128 -245 -170 -60 -42 -229 -159 -375
-260 -146 -101 -420 -291 -610 -423 -189 -131 -354 -250 -367 -263 l-23 -25 2
-1152 3 -1152 26 -55 c50 -107 156 -192 267 -216 101 -21 4004 -21 4105 1 113
24 218 110 270 223 l22 47 3 1152 c2 1120 2 1153 -17 1170 -10 10 -58 45 -107
79 -81 55 -481 334 -1039 724 -115 81 -354 247 -530 370 -176 123 -387 270
-468 327 -81 57 -160 106 -175 109 -15 2 -40 -2 -57 -11z m180 -295 c66 -46
147 -102 180 -125 33 -23 177 -123 320 -222 143 -99 366 -253 495 -343 129
-90 285 -198 345 -240 61 -42 171 -118 245 -170 74 -52 180 -125 235 -163 55
-38 106 -75 113 -81 11 -11 -81 -76 -506 -361 -286 -191 -532 -358 -546 -372
-34 -31 -37 -102 -5 -131 23 -22 70 -34 96 -25 10 3 246 159 526 345 279 186
514 341 522 345 14 5 15 -105 13 -1008 -3 -1117 1 -1036 -65 -1103 -59 -60 83
-56 -2100 -55 -1516 0 -2016 3 -2041 12 -39 15 -86 58 -110 101 -16 29 -17
109 -20 1045 -2 903 -1 1013 13 1008 8 -4 244 -159 524 -347 476 -318 512
-340 553 -340 47 1 68 12 87 49 16 29 7 83 -17 103 -9 8 -255 174 -545 368
-430 287 -526 355 -515 365 12 12 151 109 1128 785 217 150 438 303 490 340
52 37 156 109 230 160 74 52 153 106 175 122 22 16 44 27 50 24 6 -2 64 -41
130 -86z"/>
<path d="M1732 1643 c-7 -3 -109 -73 -225 -155 -117 -82 -315 -222 -441 -311
-320 -226 -349 -248 -364 -280 -28 -58 13 -117 82 -117 34 0 54 8 102 42 32
24 250 177 484 340 l425 298 655 0 655 0 425 -298 c234 -163 451 -316 484
-339 93 -67 148 -67 182 -1 29 56 14 88 -74 150 -80 57 -433 307 -727 515 -94
67 -186 130 -205 142 -35 21 -40 21 -740 20 -388 0 -711 -3 -718 -6z"/>
</g>
</svg>
