
<svg xmlns="http://www.w3.org/2000/svg" 
 fill="currentColor" viewBox="0 0 490.000000 490.000000"
 preserveAspectRatio="xMidYMid meet">

<g transform="translate(0.000000,490.000000) scale(0.100000,-0.100000)"
stroke="none">
<path d="M125 4744 l-25 -27 0 -1594 c0 -1061 3 -1601 10 -1613 6 -11 88 -74
183 -141 94 -68 201 -143 237 -169 36 -26 227 -161 425 -300 198 -140 406
-287 462 -327 80 -57 110 -73 137 -73 29 0 71 26 248 152 394 280 652 464 824
586 94 66 174 128 178 137 3 9 6 34 6 55 0 73 -82 104 -151 57 -33 -23 -134
-95 -702 -500 -154 -109 -285 -201 -293 -204 -12 -4 -14 203 -14 1433 l0 1439
268 191 c428 306 721 516 811 582 47 34 88 62 93 62 4 0 8 -404 8 -899 0 -881
0 -899 20 -924 36 -45 94 -44 139 4 21 23 21 23 21 921 0 494 3 898 6 898 8 0
80 -51 519 -366 176 -126 385 -276 465 -333 80 -57 155 -113 168 -124 l22 -20
0 -477 c0 -470 0 -477 21 -499 45 -48 103 -49 139 -4 19 25 20 42 20 554 l0
528 -42 34 c-41 32 -137 102 -798 575 -157 112 -307 221 -335 241 -273 203
-270 202 -400 108 -750 -536 -1223 -871 -1235 -874 -8 -2 -42 16 -75 40 -33
24 -179 129 -325 232 -412 293 -622 443 -784 558 -128 92 -155 107 -188 107
-29 0 -45 -7 -63 -26z m264 -322 c53 -38 240 -172 416 -298 176 -127 385 -277
465 -334 80 -57 155 -112 168 -123 l22 -20 0 -1434 c0 -812 -4 -1433 -9 -1433
-5 0 -42 24 -82 53 -41 30 -279 199 -529 377 -250 177 -479 341 -507 363 l-53
39 0 1439 c0 792 3 1439 6 1439 3 0 49 -31 103 -68z"/>
<path d="M3724 2420 c-68 -12 -208 -64 -265 -98 -141 -83 -288 -240 -353 -377
-106 -224 -113 -441 -21 -670 111 -275 391 -714 683 -1069 121 -147 133 -145
286 47 355 448 612 874 688 1143 29 105 29 264 -1 379 -77 296 -314 542 -603
626 -83 24 -324 35 -414 19z m310 -185 c355 -75 603 -438 531 -774 -35 -159
-217 -495 -426 -782 -137 -191 -240 -320 -249 -317 -12 4 -204 257 -295 388
-168 243 -338 557 -370 685 -19 76 -19 212 0 294 41 174 197 365 365 449 47
24 114 49 150 57 86 18 209 18 294 0z"/>
<path d="M3797 1939 c-148 -35 -265 -166 -287 -320 -44 -310 266 -538 553
-406 188 86 272 335 176 527 -26 52 -95 127 -146 157 -80 46 -202 64 -296 42z
m200 -215 c44 -26 93 -106 93 -153 0 -75 -56 -165 -120 -191 -17 -7 -56 -11
-94 -8 -50 3 -71 10 -99 31 -97 74 -103 231 -11 305 69 56 152 61 231 16z"/>
</g>
</svg>
