
<svg xmlns="http://www.w3.org/2000/svg"
 fill="currentColor" viewBox="0 0 490.000000 490.000000"
 preserveAspectRatio="xMidYMid meet">

<g transform="translate(0.000000,490.000000) scale(0.100000,-0.100000)"
stroke="none">
<path d="M2374 4776 c-38 -31 -49 -68 -32 -104 20 -42 71 -62 160 -62 161 0
429 -48 620 -111 196 -64 482 -221 658 -360 161 -127 337 -323 463 -514 216
-330 328 -680 353 -1100 7 -114 8 -121 36 -149 25 -24 34 -28 66 -23 23 4 46
17 61 34 23 27 24 29 18 188 -12 343 -102 662 -279 989 -358 657 -1002 1106
-1743 1215 -39 6 -134 14 -210 17 l-140 7 -31 -27z"/>
<path d="M744 4005 c-111 -24 -164 -57 -300 -188 -290 -278 -358 -401 -357
-652 0 -234 51 -333 432 -840 503 -671 1124 -1291 1796 -1796 250 -188 456
-329 548 -373 73 -36 175 -56 292 -56 123 0 193 17 305 72 77 38 103 60 271
225 116 114 196 202 212 232 54 99 70 239 42 360 -30 127 -58 162 -339 437
-278 271 -317 300 -437 329 -86 20 -141 19 -234 -5 -96 -25 -147 -53 -230
-131 -35 -34 -69 -59 -74 -57 -20 7 -265 223 -413 364 -237 226 -718 741 -718
769 0 4 31 40 68 79 37 39 78 93 90 119 70 149 68 324 -5 458 -16 30 -127 152
-285 313 -236 242 -266 269 -331 301 -108 52 -217 65 -333 40z m207 -191 c51
-15 68 -31 307 -272 296 -299 306 -315 300 -440 -5 -104 -23 -137 -139 -254
-53 -54 -100 -109 -103 -122 -9 -37 5 -62 95 -171 337 -404 772 -837 1170
-1163 108 -89 114 -88 245 39 125 119 166 141 269 142 128 1 154 -17 428 -294
257 -259 275 -283 284 -389 7 -72 -14 -139 -63 -200 -19 -25 -94 -104 -166
-177 -108 -109 -143 -138 -202 -167 -152 -74 -311 -75 -454 -2 -89 45 -415
281 -677 489 -563 448 -1147 1047 -1581 1621 -155 205 -308 429 -347 506 l-42
85 0 115 c0 187 38 258 242 454 149 144 203 188 248 204 45 16 125 14 186 -4z"/>
<path d="M2390 4007 c-14 -7 -33 -29 -43 -50 -18 -36 -18 -38 0 -74 24 -49 53
-63 138 -63 149 0 390 -63 550 -142 258 -129 474 -340 614 -598 85 -159 151
-395 151 -545 1 -132 38 -192 113 -182 22 3 49 15 61 27 19 19 21 31 20 133
-3 219 -52 411 -159 628 -148 300 -393 548 -695 703 -208 106 -349 146 -584
166 -154 12 -136 12 -166 -3z"/>
<path d="M2403 3218 c-71 -18 -91 -99 -37 -148 26 -22 43 -28 105 -33 239 -19
443 -178 524 -408 9 -24 20 -84 25 -134 8 -82 12 -92 40 -117 39 -35 82 -37
115 -4 34 34 40 69 28 166 -25 195 -98 337 -248 478 -93 89 -162 131 -275 168
-81 27 -230 44 -277 32z"/>
</g>
</svg>
