
<svg version="1.0" xmlns="http://www.w3.org/2000/svg"
 fill="#e8092e" viewBox="0 0 398.000000 398.000000"
 preserveAspectRatio="xMidYMid meet">

<g transform="translate(0.000000,398.000000) scale(0.100000,-0.100000)"
 stroke="none">
<path d="M1997 3030 c-145 -23 -335 -105 -457 -198 -83 -63 -206 -193 -249
-265 -71 -119 -114 -265 -129 -432 l-9 -100 -152 -250 c-84 -137 -167 -265
-184 -282 -48 -51 -92 -62 -325 -78 -242 -16 -282 -28 -360 -104 -84 -82 -87
-94 -90 -441 -3 -301 -3 -306 20 -350 38 -74 68 -85 238 -86 l144 -1 11 -50
c13 -58 46 -124 82 -168 l26 -30 -246 -3 -247 -2 -16 -26 c-16 -24 -16 -27 3
-52 l20 -27 1913 0 1913 0 20 27 c19 25 19 28 3 52 l-16 26 -351 0 -351 0 22
28 c47 61 71 105 91 164 l20 63 242 0 c279 0 293 4 335 85 21 42 22 56 22 255
0 115 -5 239 -11 275 -14 89 -56 176 -114 234 -88 88 -156 118 -308 137 -110
14 -174 45 -200 96 -8 15 -40 120 -71 233 -56 200 -79 256 -138 333 -32 40
-60 47 -94 23 -18 -13 -22 -30 -27 -103 -23 -323 -192 -575 -486 -722 -113
-57 -196 -74 -371 -75 -150 -1 -158 0 -250 32 -111 39 -208 93 -304 171 l-69
56 78 6 c65 6 82 11 97 29 23 29 23 36 -7 65 -23 24 -29 25 -160 25 -182 0
-175 8 -175 -188 0 -157 4 -172 48 -172 50 0 62 16 62 81 l0 61 63 -57 c114
-104 263 -177 426 -210 118 -24 354 -16 461 15 165 49 339 156 452 278 73 79
110 133 158 230 37 76 47 104 71 192 l12 45 51 -180 c58 -202 69 -226 123
-279 55 -53 107 -75 235 -97 129 -23 180 -45 239 -103 84 -83 98 -149 99 -437
0 -133 -4 -190 -13 -202 -11 -16 -35 -17 -246 -15 l-234 3 -12 42 c-18 62 -56
121 -116 181 -164 163 -422 155 -584 -19 -51 -56 -95 -143 -95 -189 0 -20 -10
-20 -534 -20 -327 0 -545 -4 -561 -10 -28 -10 -45 -43 -37 -72 9 -35 67 -39
604 -38 l522 2 11 -50 c13 -57 46 -123 82 -167 l26 -30 -743 -3 c-409 -1 -746
0 -748 3 -3 3 4 18 15 33 40 55 73 132 84 200 37 222 -113 437 -328 471 -78
12 -179 -1 -248 -33 -91 -41 -199 -176 -220 -274 l-7 -32 -138 0 c-127 0 -140
2 -150 19 -12 24 -13 505 -1 569 9 48 53 108 97 134 22 13 81 20 254 32 130 9
247 22 278 31 86 26 122 71 292 365 85 146 159 271 166 277 14 14 19 43 34
185 20 192 92 348 226 488 152 158 312 238 523 261 171 17 341 -14 492 -92 83
-43 194 -130 228 -178 l22 -31 -81 0 c-96 0 -120 -10 -120 -49 0 -54 21 -61
188 -61 202 0 192 -10 192 189 0 165 -5 181 -59 181 -40 0 -49 -16 -53 -89
l-3 -63 -58 51 c-126 110 -280 195 -424 232 -90 23 -270 32 -356 19z m-1013
-2263 c47 -20 106 -69 106 -88 0 -5 6 -9 13 -9 8 0 18 -24 26 -60 8 -33 17
-60 22 -60 5 0 9 -27 9 -60 0 -33 -4 -60 -8 -60 -10 0 -32 -68 -32 -99 0 -14
-6 -21 -20 -21 -13 0 -20 -7 -20 -20 0 -13 -7 -20 -20 -20 -13 0 -20 -7 -20
-20 0 -13 -7 -20 -19 -20 -11 0 -41 -9 -68 -21 -58 -25 -159 -23 -212 4 -19 9
-38 17 -43 17 -18 0 -82 78 -109 135 -37 77 -40 184 -8 255 68 152 242 215
403 147z m2081 -2 c47 -23 95 -57 95 -69 0 -3 11 -22 25 -42 13 -20 27 -51 31
-70 3 -19 10 -34 15 -34 16 0 10 -110 -6 -126 -8 -8 -17 -37 -21 -64 -5 -40
-10 -50 -25 -50 -12 0 -19 -7 -19 -20 0 -13 -7 -20 -20 -20 -13 0 -20 -7 -20
-20 0 -13 -7 -20 -19 -20 -11 0 -40 -9 -66 -20 -164 -70 -370 48 -404 233 -44
243 205 428 434 322z"/>
<path d="M2086 2648 c-9 -12 -16 -42 -16 -65 0 -48 -6 -52 -43 -23 -31 25 -59
25 -80 2 -28 -31 -20 -51 53 -126 l70 -73 0 -84 c0 -94 15 -129 54 -129 43 0
56 28 56 126 l0 90 70 69 c51 50 70 77 70 95 0 51 -51 67 -97 30 -37 -29 -43
-25 -43 28 0 35 -5 54 -18 65 -26 23 -58 21 -76 -5z"/>
<path d="M1779 2469 c-17 -17 -20 -29 -16 -60 3 -22 3 -39 1 -39 -3 0 -22 11
-42 25 -62 42 -112 30 -112 -27 0 -29 22 -58 70 -90 l25 -17 -31 0 c-39 -1
-64 -28 -64 -69 0 -42 25 -48 145 -32 l94 12 76 -46 c85 -51 95 -54 118 -28
37 41 15 79 -84 142 -26 18 -50 39 -53 48 -2 9 -9 42 -16 72 -16 77 -30 109
-51 120 -26 14 -37 12 -60 -11z"/>
<path d="M2411 2438 c-4 -13 -19 -58 -31 -100 l-23 -78 -78 -45 c-84 -49 -100
-72 -75 -110 23 -35 56 -32 142 16 l74 40 86 -26 c109 -33 126 -31 137 18 11
46 3 57 -51 72 l-37 11 38 23 c71 43 84 95 31 119 -35 17 -45 15 -88 -14 -33
-23 -38 -24 -31 -8 16 41 17 55 1 79 -22 34 -82 36 -95 3z"/>
<path d="M1915 2010 l-81 -38 -97 26 c-94 24 -98 24 -117 7 -37 -33 -16 -91
40 -110 l35 -12 -43 -22 c-68 -35 -76 -97 -15 -114 23 -7 40 -4 71 12 53 27
58 26 38 -4 -14 -22 -15 -30 -4 -53 10 -21 21 -28 50 -30 43 -4 45 -2 79 116
l24 84 78 46 c88 53 106 83 67 114 -29 23 -31 23 -125 -22z"/>
<path d="M2210 2030 c-40 -40 -22 -75 62 -126 35 -20 65 -39 67 -40 2 -2 14
-47 27 -101 23 -98 38 -123 76 -123 29 0 51 45 45 91 l-5 40 26 -17 c15 -9 36
-23 47 -31 31 -21 70 -16 81 10 17 39 5 67 -42 96 -43 28 -47 41 -12 41 10 0
30 11 43 24 28 28 24 60 -11 83 -22 14 -32 13 -114 -7 l-90 -22 -78 51 c-43
28 -84 51 -90 51 -7 0 -21 -9 -32 -20z"/>
<path d="M2096 1969 c-25 -19 -26 -25 -26 -111 l0 -91 -70 -78 c-73 -81 -80
-97 -54 -123 24 -24 64 -19 96 11 l28 27 0 -50 c0 -58 21 -94 54 -94 37 0 56
30 56 89 l0 53 31 -26 c33 -28 59 -32 90 -16 34 19 21 52 -51 133 l-70 78 0
89 c0 77 -3 93 -20 110 -25 25 -31 25 -64 -1z"/>
<path d="M327 1143 c-13 -12 -7 -72 9 -87 22 -22 41 -20 69 9 28 27 30 37 15
66 -8 14 -21 19 -49 19 -21 0 -41 -3 -44 -7z"/>
<path d="M3541 1136 c-35 -42 21 -112 69 -86 24 13 37 57 23 79 -13 22 -76 26
-92 7z"/>
</g>
</svg>
