<svg xmlns="http://www.w3.org/2000/svg"
 fill="#e8092e" viewBox="0 0 398.000000 398.000000"
 preserveAspectRatio="xMidYMid meet">

<g transform="translate(0.000000,398.000000) scale(0.100000,-0.100000)"
 stroke="none">
<path d="M1719 3920 c-160 -18 -319 -72 -463 -157 -71 -42 -137 -104 -546
-513 -417 -416 -470 -473 -509 -543 -227 -406 -205 -902 57 -1253 32 -43 80
-98 106 -122 51 -47 74 -49 107 -8 10 11 19 19 22 16 3 -3 19 -48 37 -100 183
-539 600 -952 1135 -1123 419 -134 876 -105 1270 82 200 95 375 220 521 374
444 465 593 1130 393 1752 -40 124 -156 352 -234 460 -218 303 -534 537 -887
656 -54 18 -98 36 -98 41 0 4 4 8 10 8 17 0 38 54 30 76 -11 28 -89 96 -180
156 -89 60 -152 92 -240 125 -36 13 -74 27 -85 32 -81 34 -316 56 -446 41z
m254 -128 c14 -6 -30 -56 -228 -259 -135 -138 -245 -259 -245 -269 0 -30 30
-54 69 -54 34 0 53 17 306 270 l270 270 50 -15 c112 -34 116 -22 -65 -194
-134 -128 -160 -158 -160 -181 0 -35 32 -60 75 -60 25 0 55 25 197 167 l166
166 44 -33 c23 -19 46 -36 51 -40 7 -6 -659 -677 -1640 -1654 l-450 -448 -52
77 -51 77 99 107 c55 58 115 122 135 140 24 24 36 44 36 63 0 31 -34 68 -63
68 -12 0 -70 -49 -143 -122 -68 -67 -126 -119 -129 -116 -11 11 -45 118 -45
143 0 17 5 25 18 25 25 0 498 478 506 512 4 20 0 34 -17 54 -32 37 -68 27
-132 -40 -202 -209 -389 -395 -394 -391 -12 12 -13 142 -1 213 26 166 97 334
196 464 62 83 792 813 867 867 181 132 385 200 602 200 61 0 118 -4 128 -7z
m677 -469 c532 -153 969 -601 1109 -1137 57 -219 66 -517 21 -728 -132 -623
-637 -1130 -1265 -1269 -120 -27 -361 -36 -503 -19 -665 77 -1213 557 -1382
1209 l-22 84 948 949 c913 912 950 948 979 942 17 -4 68 -17 115 -31z"/>
<path d="M2162 2840 c-35 -14 -48 -54 -29 -83 30 -45 105 -40 124 9 9 25 -6
60 -32 72 -30 14 -32 14 -63 2z"/>
<path d="M3113 2788 c-19 -9 -43 -53 -43 -79 0 -19 42 -49 68 -49 38 0 77 41
69 72 -13 51 -54 75 -94 56z"/>
<path d="M2857 2532 c-36 -40 -9 -102 44 -102 67 0 96 76 39 105 -38 20 -63
19 -83 -3z"/>
<path d="M2036 2494 c-142 -31 -256 -95 -361 -199 -154 -152 -226 -347 -212
-569 12 -186 80 -331 217 -467 142 -142 304 -208 504 -209 217 0 379 65 525
211 144 144 211 308 211 519 0 129 -21 217 -76 330 -39 79 -62 110 -133 181
-96 95 -180 148 -299 186 -100 33 -273 40 -376 17z m349 -139 c141 -49 254
-141 333 -270 69 -114 98 -295 68 -435 -45 -212 -212 -394 -421 -456 -83 -25
-258 -25 -340 0 -207 62 -367 223 -420 422 -21 80 -21 241 0 324 33 129 130
263 247 343 142 97 373 128 533 72z"/>
<path d="M3180 1843 c-44 -16 -55 -91 -18 -117 30 -21 54 -20 78 4 29 29 26
74 -6 99 -28 22 -30 23 -54 14z"/>
<path d="M3514 1840 c-28 -11 -35 -23 -36 -60 -2 -61 61 -91 102 -50 27 27 25
66 -5 95 -26 27 -30 28 -61 15z"/>
<path d="M1440 1110 c-24 -24 -25 -41 -5 -80 29 -57 105 -30 105 37 0 56 -60
83 -100 43z"/>
<path d="M2862 1107 c-26 -27 -28 -54 -6 -85 33 -47 114 -14 114 47 0 56 -69
80 -108 38z"/>
<path d="M1200 871 c-35 -35 -34 -63 4 -93 44 -36 106 -7 106 50 0 36 -18 59
-52 67 -22 6 -33 1 -58 -24z"/>
<path d="M3099 871 c-34 -35 -36 -49 -8 -85 25 -32 66 -34 97 -6 31 29 29 73
-4 99 -36 28 -50 26 -85 -8z"/>
<path d="M2152 823 c-22 -9 -33 -50 -20 -78 21 -46 93 -47 118 -2 13 24 13 30
0 55 -12 20 -24 27 -50 29 -19 1 -41 -1 -48 -4z"/>
<path d="M2148 478 c-27 -22 -30 -53 -7 -81 25 -33 70 -36 99 -7 24 24 25 48
4 78 -17 25 -70 30 -96 10z"/>
</g>
</svg>
