<svg xmlns="http://www.w3.org/2000/svg" 
 fill="#e8092e" viewBox="0 0 398.000000 398.000000"
 preserveAspectRatio="xMidYMid meet">

<g transform="translate(0.000000,398.000000) scale(0.100000,-0.100000)"
 stroke="none">
<path d="M947 3630 c-20 -6 -54 -18 -75 -29 -45 -23 -192 -172 -192 -195 0
-23 36 -56 63 -56 15 0 45 24 92 74 60 63 78 77 125 90 72 21 102 12 191 -56
38 -29 69 -55 69 -58 0 -3 -213 -218 -474 -479 l-474 -474 -58 78 c-52 69 -58
83 -62 133 -3 48 0 62 20 89 12 18 121 134 241 257 220 226 241 255 205 283
-42 32 -44 31 -290 -214 -164 -163 -245 -251 -260 -283 -31 -65 -32 -179 0
-239 37 -70 313 -431 331 -432 35 -3 48 4 96 52 l51 49 33 -34 34 -35 -54 -59
c-63 -67 -121 -172 -144 -258 -19 -72 -22 -242 -5 -316 20 -87 83 -207 144
-275 75 -82 160 -137 262 -169 83 -26 84 -27 95 -68 31 -116 140 -246 257
-305 l62 -31 0 -129 c0 -116 2 -131 23 -162 45 -68 137 -88 222 -48 28 13 49
31 57 50 11 25 18 29 53 29 34 0 44 -5 69 -36 68 -86 206 -86 272 1 22 29 33
35 64 35 31 0 42 -6 64 -35 66 -87 204 -87 272 -1 25 31 35 36 69 36 35 0 42
-4 53 -29 8 -19 29 -37 57 -50 85 -40 177 -20 222 48 22 33 23 41 23 280 0
249 3 271 37 271 29 0 124 43 165 75 26 21 54 35 72 35 71 0 267 72 294 107
21 29 15 71 -14 89 -25 17 -28 16 -97 -19 -40 -20 -84 -39 -100 -43 -26 -6
-27 -5 -18 19 5 13 14 43 20 65 9 32 20 46 55 66 56 33 130 116 161 182 69
145 41 324 -69 442 l-45 48 38 38 c39 38 40 38 63 21 38 -30 97 -110 128 -177
65 -140 61 -291 -12 -436 -35 -69 -40 -87 -32 -110 7 -20 17 -28 40 -30 36 -4
42 3 82 83 44 87 64 176 64 285 1 164 -54 307 -161 422 l-54 59 34 35 33 34
51 -49 c48 -48 61 -55 96 -52 18 1 294 362 331 432 18 35 23 59 22 119 -1 122
-4 127 -431 551 -328 327 -385 379 -428 395 -66 25 -148 24 -205 -3 -47 -22
-416 -284 -437 -311 -23 -28 -14 -52 39 -108 l52 -55 -194 -194 -195 -195
-145 0 -145 0 -195 195 -194 194 52 55 c53 56 62 80 40 108 -21 27 -390 289
-435 309 -51 24 -116 31 -166 19z m2105 -127 c47 -19 764 -748 774 -787 15
-61 -1 -113 -61 -192 l-57 -77 -474 474 c-261 261 -474 476 -474 479 0 11 141
112 167 120 32 10 71 4 125 -17z m-1673 -210 l43 -36 -499 -499 c-274 -274
-501 -498 -505 -498 -3 0 -21 23 -38 52 l-32 51 484 484 c265 265 488 483 494
483 6 0 30 -16 53 -37z m1769 -446 l484 -484 -32 -51 c-17 -29 -35 -52 -38
-52 -4 0 -231 224 -505 498 l-499 499 43 36 c23 21 47 37 53 37 6 0 229 -218
494 -483z m-1586 26 c98 -98 178 -182 178 -188 0 -6 -169 -179 -375 -385
l-375 -375 -185 185 -185 185 47 47 47 47 101 -98 c107 -104 139 -120 208
-105 73 15 129 84 129 158 0 61 -11 78 -115 183 l-90 92 53 61 53 61 93 -100
c103 -109 135 -127 211 -118 78 8 133 80 133 172 0 63 -8 76 -114 183 l-91 93
45 39 c25 22 47 40 50 40 3 0 85 -80 182 -177z m1088 137 l45 -39 -91 -93
c-51 -51 -97 -103 -103 -115 -18 -35 -13 -112 9 -157 26 -52 61 -77 115 -84
74 -8 107 11 208 119 l94 99 53 -61 53 -61 -90 -91 c-104 -105 -115 -122 -115
-183 0 -74 56 -143 129 -158 69 -15 101 1 208 105 l101 99 42 -43 c23 -24 42
-47 42 -52 0 -6 -81 -91 -180 -190 l-180 -180 -375 375 c-206 206 -375 379
-375 385 0 10 350 365 360 365 3 0 25 -18 50 -40z m-1345 -216 c81 -88 87 -98
79 -122 -5 -15 -21 -31 -37 -36 -26 -9 -33 -5 -122 84 l-95 94 37 38 c20 21
40 38 43 38 3 0 46 -43 95 -96z m1508 58 l37 -38 -95 -94 c-89 -89 -96 -93
-122 -84 -16 5 -32 21 -37 36 -8 24 -2 34 79 122 49 53 92 96 95 96 3 0 23
-17 43 -38z m-282 -618 l396 -396 -18 -60 c-10 -33 -20 -62 -22 -64 -4 -4
-236 160 -537 381 -218 159 -258 179 -365 180 -63 0 -89 -5 -126 -22 -30 -16
-155 -130 -379 -348 -183 -179 -335 -324 -336 -322 -2 1 -23 59 -48 127 l-44
125 396 398 397 397 145 0 145 0 396 -396z m-1574 224 c70 -70 83 -88 83 -115
0 -33 -21 -53 -56 -53 -9 0 -57 39 -105 87 l-89 87 37 38 c20 21 39 38 42 38
3 0 43 -37 88 -82z m2196 44 l37 -38 -89 -87 c-48 -48 -96 -87 -105 -87 -35 0
-56 20 -56 53 0 26 14 45 82 114 46 46 85 83 88 83 3 0 23 -17 43 -38z m-1092
-347 c93 -33 146 -120 136 -222 -25 -245 -395 -243 -415 2 -8 99 45 187 133
219 53 19 93 19 146 1z m-1329 -122 l37 -37 -45 -48 c-110 -118 -139 -301 -69
-444 36 -74 133 -170 202 -200 55 -25 55 -25 49 -62 -3 -20 -6 -47 -6 -59 0
-20 -3 -21 -37 -11 -294 81 -452 428 -322 707 35 77 123 189 149 191 2 0 21
-17 42 -37z m1750 -175 l160 -122 -59 -16 c-33 -9 -77 -27 -99 -40 -21 -13
-143 -125 -269 -249 -127 -124 -257 -252 -290 -283 l-60 -57 -1 77 c-2 96 -28
169 -92 253 -85 114 -200 178 -352 195 l-62 7 153 153 153 154 17 -60 c23 -85
84 -160 164 -202 29 -16 64 -23 127 -26 77 -4 92 -2 142 21 110 50 196 173
196 277 0 22 3 40 6 40 3 0 78 -55 166 -122z m-1579 4 c33 -33 44 -59 89 -204
l51 -167 -37 -50 c-21 -28 -44 -51 -52 -51 -57 0 -165 88 -200 165 -30 64 -33
170 -5 231 20 44 84 114 104 114 7 0 30 -17 50 -38z m2271 3 c52 -51 69 -91
74 -173 3 -54 0 -84 -13 -119 -18 -48 -98 -143 -119 -143 -7 0 -20 25 -31 55
-10 30 -38 78 -62 106 -23 28 -43 55 -43 60 0 4 14 46 30 91 30 81 87 158 117
158 7 0 28 -16 47 -35z m-336 -261 c126 -63 194 -226 154 -369 -17 -60 -79
-134 -142 -169 -49 -28 -64 -31 -140 -31 -97 0 -141 17 -215 86 -103 95 -118
268 -32 380 71 93 140 128 253 129 56 0 80 -5 122 -26z m-1296 -136 c190 -88
268 -307 176 -497 -26 -53 -109 -141 -159 -166 -155 -81 -340 -48 -458 80
-165 179 -119 459 94 574 64 35 94 41 195 38 78 -2 105 -8 152 -29z m788 -310
c11 -25 37 -64 56 -87 l36 -41 -227 0 c-134 0 -225 4 -223 9 2 5 73 76 158
157 l155 148 11 -70 c7 -38 22 -91 34 -116z m-310 -433 l0 -195 -30 0 -30 0 0
195 0 195 30 0 30 0 0 -195z m230 -40 c0 -222 -1 -236 -20 -255 -26 -26 -48
-25 -77 2 -23 21 -23 24 -23 255 l0 233 60 0 60 0 0 -235z m170 40 l0 -195
-30 0 -30 0 0 188 c0 104 3 192 7 195 3 4 17 7 30 7 l23 0 0 -195z m235 -41
c0 -214 -1 -234 -19 -253 -24 -27 -58 -27 -82 0 -17 19 -19 41 -22 256 l-3
234 63 -3 63 -3 0 -231z m-805 -6 c0 -214 -1 -223 -22 -245 -26 -28 -52 -29
-78 -3 -18 18 -20 33 -20 196 l0 175 53 49 c28 27 55 49 60 50 4 0 7 -100 7
-222z m-230 -58 l0 -90 -30 0 -30 0 0 78 c0 72 2 80 23 90 12 6 25 11 30 11 4
1 7 -39 7 -89z m-172 -64 c-3 -113 -18 -146 -63 -146 -46 0 -60 33 -60 139 l0
96 40 6 c94 14 87 22 83 -95z"/>
<path d="M2645 1486 c-16 -7 -42 -26 -57 -42 -75 -80 -61 -189 31 -251 47 -32
135 -32 182 0 92 61 90 211 -3 280 -34 25 -113 32 -153 13z m103 -112 c43 -30
16 -104 -38 -104 -51 0 -78 64 -43 102 20 22 51 23 81 2z"/>
<path d="M1305 1281 c-72 -44 -110 -131 -85 -197 38 -101 175 -145 262 -83 88
63 79 222 -16 280 -41 25 -121 25 -161 0z m119 -104 c40 -29 8 -107 -44 -107
-41 0 -68 71 -40 105 15 19 60 19 84 2z"/>
</g>
</svg>
