<svg xmlns="http://www.w3.org/2000/svg"
 fill="#e8092e" viewBox="0 0 398.000000 398.000000"
 preserveAspectRatio="xMidYMid meet">

<g transform="translate(0.000000,398.000000) scale(0.100000,-0.100000)"
 stroke="none">
<path d="M2620 3943 c-39 -14 -40 -24 -40 -444 0 -378 1 -412 20 -471 36 -118
144 -250 252 -310 42 -23 43 -25 46 -81 l3 -57 -196 0 -195 0 0 35 0 35 -65 0
-65 0 0 -47 0 -48 -117 -60 c-64 -33 -122 -66 -130 -73 -18 -19 -18 -175 0
-194 8 -7 66 -40 130 -73 l117 -60 0 -47 0 -48 65 0 65 0 0 35 0 35 180 0
c165 0 180 -1 180 -17 0 -10 -16 -74 -34 -143 -29 -103 -39 -129 -63 -147 -15
-13 -36 -23 -45 -23 -15 0 -18 -10 -18 -65 l0 -66 38 7 c82 14 171 92 187 165
l7 29 108 0 c95 0 109 -2 114 -17 3 -10 28 -135 56 -278 28 -143 53 -268 56
-277 5 -16 -4 -18 -85 -18 l-91 0 0 -65 0 -65 103 0 104 0 23 -127 c25 -139
35 -174 53 -185 7 -4 47 -8 90 -8 l77 0 0 -78 c0 -126 29 -116 -367 -122 -316
-5 -341 -6 -383 -26 -98 -45 -155 -132 -154 -234 1 -103 57 -189 154 -234 44
-20 61 -21 593 -24 l547 -3 0 66 0 65 -535 0 c-591 0 -576 -2 -615 63 -25 41
-25 93 0 134 35 57 35 58 411 63 l346 5 40 28 c63 44 86 96 91 205 l4 92 78 0
c83 0 110 14 110 57 0 12 -40 270 -89 574 -50 305 -87 557 -83 561 4 3 52 32
107 64 144 82 135 68 135 199 0 162 4 159 -191 165 l-152 5 -29 84 c-15 47
-34 88 -40 93 -7 4 -64 8 -125 8 l-113 0 0 58 0 58 43 21 c104 51 220 190 257
311 19 59 20 93 20 471 0 336 -2 411 -14 427 -14 18 -32 19 -488 21 -260 1
-480 -1 -488 -4z m870 -188 l0 -65 -395 0 -395 0 0 65 0 65 395 0 395 0 0 -65z
m0 -393 c0 -109 -5 -225 -11 -258 -24 -131 -109 -239 -235 -299 -39 -19 -74
-41 -78 -50 -3 -9 -6 -52 -6 -96 l0 -79 -65 0 -65 0 0 79 c0 44 -3 87 -6 96
-4 9 -39 31 -78 50 -127 60 -211 167 -235 299 -6 33 -11 149 -11 258 l0 198
395 0 395 0 0 -198z m-24 -995 c18 -49 35 -91 39 -95 4 -4 74 -8 156 -10 l149
-3 0 -47 0 -47 -128 -67 -127 -66 3 -51 3 -51 -71 0 -70 0 0 -60 0 -60 79 0
78 0 12 -57 c17 -85 18 -83 -44 -83 l-55 0 0 -60 0 -60 69 0 68 0 7 -37 c3
-21 6 -53 6 -70 0 -32 -1 -33 -45 -33 l-45 0 0 -60 0 -60 59 0 59 0 11 -50
c18 -83 16 -90 -24 -90 l-35 0 0 -60 0 -60 44 0 43 0 12 -57 c18 -89 27 -83
-118 -83 l-129 0 -10 48 c-6 26 -61 301 -122 612 -61 311 -115 579 -121 597
-5 17 -17 34 -25 37 -9 3 -166 6 -350 6 l-334 0 0 135 0 135 462 -2 463 -3 31
-88z m-1086 -46 l0 -89 -65 35 c-53 28 -65 39 -65 59 0 19 12 30 58 53 31 17
60 30 65 31 4 0 7 -40 7 -89z m739 -301 c20 -92 21 -90 -64 -90 -57 0 -75 3
-75 14 0 11 12 50 35 114 3 7 22 12 49 12 l44 0 11 -50z"/>
<path d="M2840 3365 l0 -65 60 0 60 0 0 65 0 65 -60 0 -60 0 0 -65z"/>
<path d="M2840 3143 c0 -44 43 -125 87 -164 38 -34 68 -48 136 -63 l27 -6 0
65 c0 58 -2 65 -20 65 -28 0 -87 56 -102 96 -12 33 -13 34 -70 34 -57 0 -58
-1 -58 -27z"/>
<path d="M974 3081 c-101 -46 -110 -60 -355 -558 l-228 -463 -45 0 c-92 0
-206 -72 -261 -165 -45 -77 -46 -113 -43 -930 l3 -770 24 -42 c14 -24 42 -55
64 -70 l40 -28 322 0 322 0 40 28 c22 15 50 46 64 70 23 40 24 50 27 264 l3
223 780 0 779 0 0 60 0 60 -1090 0 c-959 0 -1095 2 -1127 15 -48 20 -71 41
-94 87 l-19 38 1165 0 1165 0 0 60 0 60 -1170 0 -1171 0 3 393 3 394 29 41
c18 26 47 51 79 67 l51 25 568 0 568 0 0 60 0 60 -465 0 c-311 0 -465 3 -465
10 0 6 97 203 215 439 161 322 221 433 242 447 27 18 60 19 736 22 l707 3 0
59 0 60 -712 0 c-676 0 -715 -1 -754 -19z m-763 -2401 c15 -12 42 -26 59 -31
l30 -11 0 -229 0 -229 -45 0 c-32 0 -51 6 -65 20 -19 19 -20 33 -20 260 0 132
3 240 6 240 3 0 19 -9 35 -20z m349 -270 l0 -230 -65 0 -65 0 0 230 0 230 65
0 65 0 0 -230z m260 20 c0 -197 -1 -211 -20 -230 -14 -14 -33 -20 -65 -20
l-45 0 0 230 0 230 65 0 65 0 0 -210z"/>
<path d="M1340 2780 l0 -60 65 0 65 0 0 60 0 60 -65 0 -65 0 0 -60z"/>
<path d="M1604 2713 c-11 -27 -20 -51 -22 -55 -3 -7 378 -203 382 -196 14 23
48 109 45 112 -9 8 -369 186 -378 186 -4 0 -17 -21 -27 -47z"/>
<path d="M1150 2585 l0 -65 60 0 60 0 0 65 0 65 -60 0 -60 0 0 -65z"/>
<path d="M1280 2325 l0 -65 60 0 60 0 0 65 0 65 -60 0 -60 0 0 -65z"/>
<path d="M1540 2325 l0 -65 225 0 225 0 0 65 0 65 -225 0 -225 0 0 -65z"/>
<path d="M1768 2084 c-104 -52 -188 -96 -188 -99 0 -13 45 -95 52 -95 7 0 367
177 376 185 4 4 -41 105 -47 104 -3 0 -90 -43 -193 -95z"/>
<path d="M409 1780 c-48 -26 -86 -72 -100 -122 -6 -25 -9 -105 -7 -202 3 -181
10 -202 81 -260 l39 -31 268 0 268 0 39 31 c71 58 78 79 81 260 4 177 -4 226
-45 274 -55 66 -75 70 -345 70 -220 -1 -246 -3 -279 -20z m515 -121 l26 -20 0
-155 c0 -217 16 -204 -258 -204 -197 0 -211 1 -236 21 l-26 20 0 159 0 159 26
20 c25 20 39 21 234 21 195 0 209 -1 234 -21z"/>
<path d="M1319 1780 c-48 -26 -86 -72 -100 -122 -6 -25 -9 -105 -7 -202 3
-181 10 -202 81 -260 l39 -31 589 -3 589 -2 0 60 0 60 -559 0 c-550 0 -559 0
-585 21 -22 17 -26 28 -26 70 l0 49 585 0 585 0 0 60 0 60 -585 0 -585 0 0 49
c0 42 4 53 26 70 26 21 35 21 585 21 l559 0 0 60 0 60 -577 0 c-550 -1 -580
-2 -614 -20z"/>
</g>
</svg>
