<svg xmlns="http://www.w3.org/2000/svg"
 fill="#e8092e" viewBox="0 0 398.000000 398.000000"
 preserveAspectRatio="xMidYMid meet">

<g transform="translate(0.000000,398.000000) scale(0.100000,-0.100000)"
 stroke="none">
<path d="M3810 3850 l0 -100 -972 0 c-1052 0 -1079 -2 -1283 -55 -55 -14 -159
-51 -232 -81 l-132 -55 -223 73 c-214 70 -227 73 -319 73 -88 0 -100 -2 -162
-34 -73 -37 -142 -103 -179 -172 -20 -39 -23 -57 -23 -154 1 -109 1 -111 74
-328 l72 -219 -50 -116 c-54 -129 -82 -215 -114 -361 -20 -93 -21 -123 -24
-1118 l-4 -1023 -99 0 -100 0 0 -65 0 -65 650 0 650 0 0 65 0 65 -100 0 -100
0 0 140 c0 89 4 140 10 140 6 0 36 -13 68 -29 162 -81 385 -147 577 -172 135
-17 410 -6 536 20 125 27 231 62 356 117 l101 45 224 -73 c213 -70 227 -73
318 -73 82 0 103 4 152 27 72 34 146 102 184 170 27 50 29 60 29 163 -1 109
-1 111 -73 328 l-73 218 50 117 c180 427 190 879 26 1302 -19 51 -35 94 -35
96 0 2 50 4 110 4 l110 0 0 -100 0 -100 65 0 65 0 0 715 0 715 -65 0 -65 0 0
-100z m-520 -615 l0 -395 -291 0 -291 0 -59 46 c-123 94 -312 177 -470 205
-100 17 -315 15 -407 -5 -292 -63 -514 -210 -684 -450 -276 -391 -271 -909 13
-1297 63 -86 185 -202 276 -262 266 -177 612 -230 918 -141 366 106 661 404
761 769 25 91 28 116 28 280 1 193 -8 250 -60 397 -36 100 -67 160 -130 250
-30 43 -54 80 -54 83 0 3 137 5 303 5 l304 0 13 -27 c179 -384 206 -811 74
-1203 -40 -117 -147 -332 -204 -407 -80 -106 -226 -261 -320 -339 -303 -253
-664 -375 -1068 -361 -379 12 -659 115 -966 352 -96 75 -135 114 -229 230
-159 197 -241 345 -311 563 -125 390 -91 800 99 1191 72 147 143 246 278 387
299 314 610 466 1052 518 17 1 344 4 728 5 l697 1 0 -395z m520 0 l0 -395
-195 0 -195 0 0 395 0 395 195 0 195 0 0 -395z m-2956 302 l189 -53 -104 -81
c-120 -93 -277 -251 -369 -372 l-64 -83 -48 168 c-31 110 -47 189 -48 227 0
131 104 243 230 246 14 1 110 -23 214 -52z m1341 -583 c285 -59 534 -251 667
-519 71 -142 101 -270 101 -435 0 -63 -6 -142 -12 -175 -82 -407 -377 -702
-786 -786 -33 -7 -112 -12 -175 -12 -63 0 -142 5 -175 12 -409 84 -704 379
-786 786 -15 77 -15 273 0 350 63 312 250 559 526 697 116 58 219 87 365 102
56 6 199 -5 275 -20z m-1799 -1681 c14 -32 69 -127 122 -212 119 -188 220
-302 383 -425 l118 -91 1 -52 0 -53 -330 0 -330 0 0 445 c0 245 2 445 6 445 3
0 16 -26 30 -57z m3174 -616 c0 -106 -69 -204 -164 -232 -27 -8 -59 -15 -70
-15 -12 0 -106 24 -210 53 l-189 53 104 81 c120 94 278 252 369 372 l64 83 48
-168 c31 -110 47 -189 48 -227z m-2550 -412 l0 -65 -330 0 -330 0 0 65 0 65
330 0 330 0 0 -65z"/>
<path d="M1815 3483 c-175 -23 -325 -68 -478 -144 -481 -239 -802 -714 -834
-1231 l-6 -108 60 0 60 0 12 126 c45 461 295 845 699 1072 163 92 328 142 540
163 l122 13 0 58 0 58 -72 -1 c-40 -1 -86 -4 -103 -6z"/>
<path d="M2120 3430 l0 -60 65 0 65 0 0 60 0 60 -65 0 -65 0 0 -60z"/>
<path d="M560 3365 l0 -65 65 0 65 0 0 65 0 65 -65 0 -65 0 0 -65z"/>
<path d="M1845 2826 c-113 -15 -216 -59 -336 -141 -122 -83 -189 -162 -268
-319 -55 -110 -65 -140 -78 -224 -29 -186 3 -399 81 -534 89 -157 181 -248
332 -331 152 -83 185 -95 296 -108 312 -36 572 64 762 295 68 82 161 266 178
353 6 32 12 119 12 193 1 133 0 137 -40 257 -43 126 -97 216 -196 325 -51 55
-233 168 -338 209 -65 26 -92 30 -195 34 -67 2 -160 -2 -210 -9z m362 -148
c45 -16 86 -35 92 -42 5 -6 13 -52 16 -101 6 -87 6 -91 -21 -130 -28 -41 -209
-215 -231 -223 -10 -3 -13 39 -13 185 l-1 188 -39 80 c-22 44 -40 81 -40 84 0
13 168 -16 237 -41z m-362 -29 c17 -10 42 -37 55 -61 24 -41 25 -53 28 -225 3
-121 0 -183 -6 -183 -6 0 -55 42 -109 93 -54 51 -123 110 -153 132 -51 38 -59
40 -137 44 -46 1 -83 6 -83 10 0 10 143 130 197 165 48 32 129 56 158 49 11
-3 34 -14 50 -24z m679 -181 c37 -41 83 -107 106 -151 l40 -78 -40 -59 c-26
-38 -57 -69 -88 -87 -45 -27 -53 -28 -209 -31 -99 -2 -163 0 -163 6 0 5 50 63
111 128 61 66 116 130 123 144 8 14 19 64 26 113 7 48 16 87 20 87 5 0 38 -33
74 -72z m-947 -165 c47 -26 233 -213 233 -234 0 -5 -70 -9 -160 -9 -180 0
-188 -2 -300 -74 -39 -25 -73 -46 -77 -46 -3 0 -3 44 0 98 4 80 11 113 37 178
18 43 37 84 42 91 5 7 28 14 51 16 105 9 125 7 174 -20z m460 -255 c29 -27 29
-65 1 -95 -27 -29 -65 -29 -95 -1 -29 27 -29 65 -1 95 27 29 65 29 95 1z m671
-85 c-4 -81 -11 -112 -38 -178 -18 -44 -38 -85 -44 -92 -6 -7 -51 -15 -101
-19 -88 -6 -91 -5 -131 22 -42 30 -224 220 -224 234 0 5 84 10 188 12 l187 3
75 57 c41 31 79 57 84 57 5 1 6 -43 4 -96z m-898 -32 c0 -4 -48 -60 -106 -122
-124 -134 -150 -178 -159 -277 -4 -40 -11 -72 -15 -72 -22 0 -145 152 -180
223 l-40 79 40 58 c39 57 85 94 138 110 37 11 322 12 322 1z m120 -271 c0
-179 3 -191 70 -289 66 -98 67 -95 -30 -87 -89 7 -199 34 -258 63 -37 18 -37
19 -46 100 -8 79 -7 85 18 135 19 36 60 83 127 146 55 50 105 92 110 92 5 0 9
-68 9 -160z m237 67 c54 -51 123 -110 153 -132 51 -38 59 -40 137 -44 46 -1
83 -6 83 -10 0 -18 -171 -149 -239 -183 l-74 -37 -59 41 c-36 26 -70 60 -86
87 -26 44 -27 53 -30 209 -3 105 0 162 6 162 6 0 55 -42 109 -93z"/>
<path d="M3290 635 l0 -65 65 0 65 0 0 65 0 65 -65 0 -65 0 0 -65z"/>
</g>
</svg>
