<svg xmlns="http://www.w3.org/2000/svg"
 fill="#e8092e" viewBox="0 0 398.000000 398.000000"
 preserveAspectRatio="xMidYMid meet">

<g transform="translate(0.000000,398.000000) scale(0.100000,-0.100000)"
 stroke="none">
<path d="M819 3926 c-80 -21 -143 -80 -174 -158 -14 -38 -16 -86 -13 -368 l3
-325 27 -47 c16 -25 44 -59 63 -75 19 -16 125 -69 235 -118 236 -104 250 -115
250 -206 l0 -59 -233 0 c-210 0 -239 -2 -295 -21 -130 -44 -252 -168 -292
-296 -20 -64 -20 -91 -20 -1139 l0 -1074 60 0 60 0 0 1045 c0 726 3 1060 11
1097 18 86 74 164 152 214 68 44 134 54 354 54 l202 0 3 -617 c3 -676 1 -647
63 -721 16 -19 47 -46 69 -60 l41 -27 215 0 215 0 45 30 c61 41 106 104 119
165 7 34 11 252 11 640 l0 590 593 0 c640 0 663 -2 744 -54 78 -50 134 -128
152 -214 8 -37 11 -371 11 -1097 l0 -1045 60 0 60 0 0 1074 c0 1048 0 1075
-20 1139 -40 128 -162 252 -292 296 -60 20 -78 21 -685 21 l-623 0 0 59 c0 91
14 103 250 207 110 48 216 101 235 117 58 47 87 107 94 195 l6 77 66 5 c75 6
121 31 160 88 22 33 24 44 24 167 0 123 -2 134 -24 167 -41 60 -84 82 -167 86
l-74 4 -9 35 c-15 52 -56 100 -114 131 l-52 27 -760 2 c-579 1 -771 -1 -806
-11z m1576 -147 c19 -17 40 -47 46 -67 7 -24 9 -136 7 -319 -3 -266 -4 -283
-24 -309 -15 -20 -76 -53 -225 -118 -112 -50 -221 -104 -241 -120 -22 -16 -49
-52 -65 -84 l-28 -57 -5 -742 -5 -741 -25 -27 c-43 -47 -77 -55 -230 -55 -153
0 -187 8 -230 55 l-25 27 -5 741 -5 742 -28 57 c-16 32 -43 68 -65 84 -20 16
-129 70 -241 120 -149 65 -210 98 -225 118 -20 26 -21 43 -24 309 -2 183 0
295 7 319 6 20 27 50 46 67 l36 31 759 0 759 0 36 -31z m268 -171 c12 -6 27
-18 34 -27 16 -20 17 -152 2 -185 -14 -29 -56 -49 -95 -44 l-29 3 -3 119 c-1
66 0 126 2 133 7 16 60 17 89 1z"/>
<path d="M2795 2225 l-25 -24 0 -1056 0 -1056 25 -24 c24 -25 24 -25 235 -25
211 0 211 0 235 25 l25 24 0 1056 0 1056 -25 24 c-24 25 -24 25 -235 25 -211
0 -211 0 -235 -25z m365 -1080 l0 -975 -130 0 -130 0 0 975 0 975 130 0 130 0
0 -975z"/>
<path d="M2970 1925 l0 -65 60 0 60 0 0 65 0 65 -60 0 -60 0 0 -65z"/>
<path d="M2970 1535 l0 -65 60 0 60 0 0 65 0 65 -60 0 -60 0 0 -65z"/>
<path d="M2970 1145 l0 -65 60 0 60 0 0 65 0 65 -60 0 -60 0 0 -65z"/>
<path d="M2970 755 l0 -65 60 0 60 0 0 65 0 65 -60 0 -60 0 0 -65z"/>
<path d="M2970 365 l0 -65 60 0 60 0 0 65 0 65 -60 0 -60 0 0 -65z"/>
<path d="M710 2160 c-20 -20 -20 -33 -20 -1045 l0 -1026 25 -24 24 -25 926 0
926 0 24 25 c25 24 25 26 25 205 0 237 16 220 -215 220 l-175 0 0 165 0 165
170 0 c168 0 171 0 195 25 l25 24 0 244 c0 194 -3 247 -14 263 -13 17 -31 19
-228 24 l-213 5 0 130 0 130 110 3 c84 2 113 7 127 19 16 15 18 38 18 238 0
202 -2 223 -18 238 -15 14 -42 17 -160 17 l-142 0 0 -60 0 -59 98 -3 97 -3 0
-130 0 -130 -110 -3 c-84 -2 -113 -7 -127 -19 -16 -15 -18 -38 -18 -238 0
-202 2 -223 18 -238 16 -15 47 -17 225 -17 l207 0 0 -165 0 -165 -170 0 c-168
0 -171 0 -195 -25 l-25 -24 0 -236 c0 -232 4 -267 34 -287 6 -4 89 -8 184 -8
l172 0 0 -100 0 -100 -845 0 -845 0 0 945 0 945 130 0 130 0 0 60 0 60 -175 0
c-162 0 -177 -2 -195 -20z"/>
</g>
</svg>
