<svg xmlns="http://www.w3.org/2000/svg"
 fill="#e8092e" viewBox="0 0 398.000000 398.000000"
 preserveAspectRatio="xMidYMid meet">

<g transform="translate(0.000000,398.000000) scale(0.100000,-0.100000)"
 stroke="none">
<path d="M2961 3900 c-231 -62 -393 -203 -501 -433 -51 -109 -70 -196 -70
-320 0 -168 36 -292 119 -420 92 -141 230 -250 381 -304 l80 -28 0 -316 c0
-247 3 -319 13 -333 9 -12 31 -20 65 -24 l52 -5 0 -671 c0 -767 2 -749 -76
-823 -103 -100 -280 -77 -351 45 -27 45 -28 53 -31 210 l-4 163 30 47 c129
208 201 426 222 670 34 401 -108 804 -385 1091 -110 114 -184 174 -312 252
-119 72 -268 132 -417 167 -97 22 -133 26 -286 26 -197 0 -284 -13 -455 -69
-231 -75 -400 -179 -565 -344 -213 -214 -358 -492 -406 -776 -22 -133 -23
-361 -1 -482 53 -293 189 -556 391 -758 127 -126 213 -191 346 -259 128 -66
248 -109 383 -138 82 -17 138 -21 282 -22 206 -1 307 14 472 69 191 64 326
144 486 288 l87 79 0 -49 c0 -180 84 -319 226 -373 68 -26 165 -31 234 -11 63
17 148 79 187 135 64 93 63 78 63 842 l0 691 51 5 c27 3 56 11 62 17 8 8 14
79 17 224 l5 212 98 3 97 3 0 -36 0 -35 65 0 65 0 0 130 0 130 -65 0 -65 0 0
-35 0 -36 -97 3 -98 3 -3 46 -3 45 58 18 c396 123 619 573 487 984 -75 233
-254 409 -498 489 -113 37 -323 43 -435 13z m363 -120 c118 -30 189 -72 291
-175 93 -93 131 -154 172 -275 29 -87 26 -291 -6 -388 -61 -186 -227 -352
-412 -413 -63 -21 -93 -24 -209 -24 -116 0 -146 3 -209 24 -134 44 -269 152
-350 278 -101 160 -120 407 -44 587 54 130 181 270 302 335 132 70 313 90 465
51z m-1644 -1035 c251 -41 487 -159 675 -337 194 -184 315 -387 380 -639 21
-82 28 -137 32 -254 8 -222 -27 -405 -111 -580 l-43 -90 -21 41 c-25 50 -85
109 -134 135 -21 11 -38 22 -38 25 0 2 11 30 24 62 51 121 58 163 59 355 1
157 -2 192 -21 259 -58 210 -193 411 -372 553 -162 128 -323 188 -580 215
-107 12 -123 11 -224 -9 -193 -39 -313 -91 -453 -198 -138 -105 -242 -234
-318 -395 -67 -141 -76 -187 -82 -398 -5 -165 -3 -194 16 -274 25 -106 92
-252 158 -345 178 -251 436 -404 731 -434 387 -39 749 124 967 435 22 32 43
58 46 58 3 0 24 -13 46 -29 51 -37 93 -118 93 -178 0 -38 -7 -53 -54 -111
-150 -185 -404 -345 -649 -407 -480 -122 -942 9 -1278 362 -236 249 -359 555
-359 893 0 338 123 644 357 891 206 215 448 346 733 394 106 18 307 18 420 0z
m-117 -381 l37 -7 0 -221 c0 -249 4 -266 62 -266 27 0 54 22 195 162 l163 162
91 -93 92 -93 -157 -157 c-144 -145 -156 -160 -156 -194 0 -63 14 -67 261 -67
l217 0 7 -65 c4 -36 4 -94 0 -130 l-7 -65 -217 0 c-242 0 -261 -4 -261 -62 0
-24 19 -50 101 -139 l102 -109 -52 -51 c-28 -29 -63 -76 -77 -106 l-27 -54
-123 121 c-112 112 -125 121 -155 118 -54 -5 -59 -25 -59 -269 l0 -216 -37 -7
c-49 -8 -118 -8 -177 0 l-46 7 0 216 c0 239 -5 264 -54 269 -26 3 -48 -15
-190 -157 l-161 -160 -52 40 c-29 22 -70 63 -92 91 l-39 52 154 160 c144 151
154 163 152 196 -5 56 -23 60 -270 60 l-218 0 0 130 0 130 218 0 c251 0 265 4
270 64 3 39 0 42 -154 197 l-157 157 93 92 93 92 162 -162 c143 -143 165 -161
191 -158 49 5 54 30 54 270 l0 217 28 4 c45 7 155 7 195 1z m1667 -124 l0
-130 -70 0 -70 0 0 130 0 130 70 0 70 0 0 -130z m-2020 -32 l0 -123 -85 85
-86 85 78 37 c43 21 81 38 86 38 4 0 7 -55 7 -122z m633 80 c37 -17 67 -33 67
-35 0 -5 -139 -135 -161 -151 -18 -13 -19 -8 -19 108 0 140 -10 133 113 78z
m1387 -373 l0 -65 -70 0 -70 0 0 65 0 65 70 0 70 0 0 -65z m-2506 -193 c-64
-1 -118 -1 -121 1 -2 2 13 41 33 86 l37 82 84 -83 84 -83 -117 -3z m1612 26
l6 -28 -118 0 -119 0 85 85 85 86 27 -58 c15 -32 30 -70 34 -85z m-1576 -633
l-85 -86 -37 78 c-20 43 -37 81 -37 86 -1 4 54 7 121 7 l123 0 -85 -85z m1580
73 c0 -7 -11 -37 -25 -65 -35 -76 -60 -74 -145 12 l-64 65 117 0 c87 0 117 -3
117 -12z m-201 -354 c-68 -69 -85 -70 -47 -3 29 52 101 108 106 83 3 -10 -21
-42 -59 -80z m-933 -242 c-3 -2 -41 13 -86 34 l-81 38 83 83 83 84 3 -117 c1
-64 0 -119 -2 -122z m633 146 c39 -37 71 -69 71 -71 0 -5 -128 -63 -157 -72
-23 -6 -23 -6 -23 115 0 141 -9 138 109 28z"/>
<path d="M3065 3658 c-89 -17 -193 -75 -267 -148 -160 -159 -200 -389 -104
-585 19 -38 50 -85 68 -102 l34 -33 43 44 44 45 -37 42 c-57 67 -79 137 -74
239 3 66 11 99 32 147 35 77 122 163 203 200 111 51 267 40 352 -26 l24 -19
-89 -96 c-80 -87 -92 -96 -117 -92 -60 12 -130 -42 -143 -109 -10 -58 41 -126
107 -140 61 -14 149 60 149 126 0 21 21 51 88 122 48 52 89 95 92 96 10 2 50
-69 66 -118 12 -37 15 -73 12 -129 -5 -88 -29 -149 -78 -206 l-33 -37 44 -45
44 -45 39 43 c87 96 128 244 107 385 -17 117 -65 209 -154 298 -128 128 -279
176 -452 143z"/>
<path d="M1410 1850 l0 -60 60 0 60 0 0 60 0 60 -60 0 -60 0 0 -60z"/>
<path d="M1395 1636 c-16 -7 -45 -28 -62 -46 -111 -114 -38 -305 122 -318 69
-6 96 1 136 35 108 91 82 284 -44 332 -38 15 -115 13 -152 -3z m98 -117 c37
-17 51 -46 37 -79 -15 -36 -52 -53 -84 -38 -63 28 -50 104 21 127 1 1 13 -4
26 -10z"/>
<path d="M1020 1460 l0 -60 60 0 60 0 0 60 0 60 -60 0 -60 0 0 -60z"/>
<path d="M1800 1460 l0 -60 60 0 60 0 0 60 0 60 -60 0 -60 0 0 -60z"/>
<path d="M1410 1070 l0 -60 60 0 60 0 0 60 0 60 -60 0 -60 0 0 -60z"/>
</g>
</svg>
